REM DIRINDEX 1\6,1\2\7,1\2\8,1\2\9,1\3\10,1\3\11,1\4\12,1\4\13,1\4\14,1\5\15,1\5\16,1\5\17
REM DIRNAME folder01,folder02,folder03,folder04,folder05,folder06,folder07,folder08,folder09,folder10,folder11,folder12,folder13,folder14,folder15,folder16,folder17
TITLE ""
FILE "3Q_t_0316-0331.mp3" MP3
  TRACK 01 AUDIO
    TITLE "10:cjc041_2238"
    INDEX 01 00:00:00
  TRACK 02 AUDIO
    TITLE "0:"
    INDEX 01 00:00:72
  TRACK 03 AUDIO
    TITLE "11:cjc041_2239"
    INDEX 01 00:01:46
  TRACK 04 AUDIO
    TITLE "0:"
    INDEX 01 00:04:27
  TRACK 05 AUDIO
    TITLE "10:cjc041_2240"
    INDEX 01 00:05:01
  TRACK 06 AUDIO
    TITLE "0:"
    INDEX 01 00:06:16
  TRACK 07 AUDIO
    TITLE "11:cjc041_2241"
    INDEX 01 00:06:67
  TRACK 08 AUDIO
    TITLE "0:"
    INDEX 01 00:07:72
  TRACK 09 AUDIO
    TITLE "10:cjc041_2242"
    INDEX 01 00:08:54
  TRACK 10 AUDIO
    TITLE "0:"
    INDEX 01 00:09:67
  TRACK 11 AUDIO
    TITLE "11:cjc041_2243"
    INDEX 01 00:10:45
  TRACK 12 AUDIO
    TITLE "0:"
    INDEX 01 00:13:73
  TRACK 13 AUDIO
    TITLE "10:cjc041_2244"
    INDEX 01 00:14:51
  TRACK 14 AUDIO
    TITLE "0:"
    INDEX 01 00:15:64
  TRACK 15 AUDIO
    TITLE "11:cjc041_2245"
    INDEX 01 00:16:46
  TRACK 16 AUDIO
    TITLE "0:"
    INDEX 01 00:19:40
  TRACK 17 AUDIO
    TITLE "10:cjc041_2246"
    INDEX 01 00:20:16
  TRACK 18 AUDIO
    TITLE "0:"
    INDEX 01 00:21:27
  TRACK 19 AUDIO
    TITLE "11:cjc041_2247"
    INDEX 01 00:22:01
  TRACK 20 AUDIO
    TITLE "0:"
    INDEX 01 00:23:40
  TRACK 21 AUDIO
    TITLE "10:cjc041_2248"
    INDEX 01 00:24:20
  TRACK 22 AUDIO
    TITLE "0:"
    INDEX 01 00:25:50
  TRACK 23 AUDIO
    TITLE "11:cjc041_2249"
    INDEX 01 00:26:20
  TRACK 24 AUDIO
    TITLE "0:"
    INDEX 01 00:27:30
  TRACK 25 AUDIO
    TITLE "10:cjc041_2250"
    INDEX 01 00:28:12
  TRACK 26 AUDIO
    TITLE "0:"
    INDEX 01 00:29:13
  TRACK 27 AUDIO
    TITLE "11:cjc041_2251"
    INDEX 01 00:29:68
  TRACK 28 AUDIO
    TITLE "0:"
    INDEX 01 00:31:22
  TRACK 29 AUDIO
    TITLE "10:cjc041_2252"
    INDEX 01 00:32:01
  TRACK 30 AUDIO
    TITLE "0:"
    INDEX 01 00:33:24
  TRACK 31 AUDIO
    TITLE "11:cjc041_2253"
    INDEX 01 00:34:00
  TRACK 32 AUDIO
    TITLE "0:"
    INDEX 01 00:35:66
  TRACK 33 AUDIO
    TITLE "10:cjc041_2254"
    INDEX 01 00:36:46
  TRACK 34 AUDIO
    TITLE "0:"
    INDEX 01 00:37:67
  TRACK 35 AUDIO
    TITLE "11:cjc041_2255"
    INDEX 01 00:38:49
  TRACK 36 AUDIO
    TITLE "0:"
    INDEX 01 00:41:55
  TRACK 37 AUDIO
    TITLE "10:cjc041_2256"
    INDEX 01 00:42:35
  TRACK 38 AUDIO
    TITLE "0:"
    INDEX 01 00:43:52
  TRACK 39 AUDIO
    TITLE "11:cjc041_2257"
    INDEX 01 00:44:30
  TRACK 40 AUDIO
    TITLE "0:"
    INDEX 01 00:47:09
  TRACK 41 AUDIO
    TITLE "10:cjc041_2258"
    INDEX 01 00:47:68
  TRACK 42 AUDIO
    TITLE "0:"
    INDEX 01 00:49:10
  TRACK 43 AUDIO
    TITLE "11:cjc041_2259"
    INDEX 01 00:49:63
  TRACK 44 AUDIO
    TITLE "0:"
    INDEX 01 00:53:31
  TRACK 45 AUDIO
    TITLE "10:cjc041_2260"
    INDEX 01 00:54:03
  TRACK 46 AUDIO
    TITLE "0:"
    INDEX 01 00:55:24
  TRACK 47 AUDIO
    TITLE "11:cjc041_2261"
    INDEX 01 00:56:00
  TRACK 48 AUDIO
    TITLE "0:"
    INDEX 01 00:57:27
  TRACK 49 AUDIO
    TITLE "10:cjc041_2262"
    INDEX 01 00:58:07
  TRACK 50 AUDIO
    TITLE "0:"
    INDEX 01 00:59:06
  TRACK 51 AUDIO
    TITLE "11:cjc041_2263"
    INDEX 01 00:59:59
  TRACK 52 AUDIO
    TITLE "0:"
    INDEX 01 01:01:01
  TRACK 53 AUDIO
    TITLE "10:cjc041_2264"
    INDEX 01 01:01:56
  TRACK 54 AUDIO
    TITLE "0:"
    INDEX 01 01:02:65
  TRACK 55 AUDIO
    TITLE "11:cjc041_2265"
    INDEX 01 01:03:43
  TRACK 56 AUDIO
    TITLE "0:"
    INDEX 01 01:04:43
  TRACK 57 AUDIO
    TITLE "10:cjc041_2266"
    INDEX 01 01:05:26
  TRACK 58 AUDIO
    TITLE "0:"
    INDEX 01 01:06:45
  TRACK 59 AUDIO
    TITLE "11:cjc041_2267"
    INDEX 01 01:07:21
  TRACK 60 AUDIO
    TITLE "0:"
    INDEX 01 01:09:01
  TRACK 61 AUDIO
    TITLE "10:cjc041_2268"
    INDEX 01 01:09:54
  TRACK 62 AUDIO
    TITLE "0:"
    INDEX 01 01:10:57
  TRACK 63 AUDIO
    TITLE "11:cjc041_2269"
    INDEX 01 01:11:39
  TRACK 64 AUDIO
    TITLE "0:"
    INDEX 01 01:12:60
